<svg width="130" height="36" viewBox="50 50 130 36" fill="none" xmlns="http://www.w3.org/2000/svg">
<path d="M42.61 13.37C44.27 13.37 45.78 13.76 47.14 14.54C48.5 15.3 49.18 16.68 49.18 18.68L49.15 25.85C49.13 27.11 48.5 28.03 47.26 28.61C46.02 29.17 44.21 29.45 41.83 29.45C37.39 29.45 35.17 27.72 35.17 24.26C35.17 22.8 35.62 21.66 36.52 20.84C37.44 20.02 38.8 19.61 40.6 19.61C41.34 19.61 42.08 19.71 42.82 19.91C43.56 20.09 44.2 20.33 44.74 20.63V19.67C44.74 17.93 43.62 17.06 41.38 17.06C40.52 17.06 39.63 17.22 38.71 17.54C37.81 17.84 37.09 18.21 36.55 18.65V14.69C37.09 14.33 37.91 14.02 39.01 13.76C40.13 13.5 41.33 13.37 42.61 13.37ZM41.98 26.3C43.02 26.3 43.74 26.23 44.14 26.09C44.54 25.95 44.74 25.67 44.74 25.25V22.91C44.04 22.67 43.27 22.55 42.43 22.55C41.45 22.55 40.73 22.7 40.27 23C39.83 23.28 39.61 23.73 39.61 24.35C39.61 24.93 39.84 25.4 40.3 25.76C40.78 26.12 41.34 26.3 41.98 26.3ZM59.058 29.39C57.578 29.39 56.238 29.1 55.038 28.52C53.838 27.94 52.878 27.07 52.158 25.91C51.458 24.73 51.108 23.3 51.108 21.62C51.108 18.92 51.828 16.88 53.268 15.5C54.708 14.1 56.628 13.4 59.028 13.4C59.868 13.4 60.718 13.49 61.578 13.67C62.438 13.83 63.198 14.06 63.858 14.36V18.2C63.038 17.84 62.308 17.57 61.668 17.39C61.028 17.19 60.388 17.09 59.748 17.09C58.428 17.09 57.398 17.42 56.658 18.08C55.918 18.72 55.548 19.73 55.548 21.11C55.548 22.65 55.888 23.79 56.568 24.53C57.268 25.27 58.398 25.64 59.958 25.64C61.138 25.64 62.448 25.24 63.888 24.44V28.25C63.168 28.63 62.418 28.91 61.638 29.09C60.878 29.29 60.018 29.39 59.058 29.39ZM72.4366 13.37C74.0966 13.37 75.6066 13.76 76.9666 14.54C78.3266 15.3 79.0066 16.68 79.0066 18.68L78.9766 25.85C78.9566 27.11 78.3266 28.03 77.0866 28.61C75.8466 29.17 74.0366 29.45 71.6566 29.45C67.2166 29.45 64.9966 27.72 64.9966 24.26C64.9966 22.8 65.4466 21.66 66.3466 20.84C67.2666 20.02 68.6266 19.61 70.4266 19.61C71.1666 19.61 71.9066 19.71 72.6466 19.91C73.3866 20.09 74.0266 20.33 74.5666 20.63V19.67C74.5666 17.93 73.4466 17.06 71.2066 17.06C70.3466 17.06 69.4566 17.22 68.5366 17.54C67.6366 17.84 66.9166 18.21 66.3766 18.65V14.69C66.9166 14.33 67.7366 14.02 68.8366 13.76C69.9566 13.5 71.1566 13.37 72.4366 13.37ZM71.8066 26.3C72.8466 26.3 73.5666 26.23 73.9666 26.09C74.3666 25.95 74.5666 25.67 74.5666 25.25V22.91C73.8666 22.67 73.0966 22.55 72.2566 22.55C71.2766 22.55 70.5566 22.7 70.0966 23C69.6566 23.28 69.4366 23.73 69.4366 24.35C69.4366 24.93 69.6666 25.4 70.1266 25.76C70.6066 26.12 71.1666 26.3 71.8066 26.3ZM89.8445 13.4C92.0645 13.4 93.7645 14.08 94.9445 15.44C96.1245 16.8 96.7145 18.77 96.7145 21.35C96.6945 26.75 94.0345 29.45 88.7345 29.45C84.0945 29.45 81.7745 28.13 81.7745 25.49V8.21H86.1545V14.36C86.6945 14.04 87.3045 13.8 87.9845 13.64C88.6845 13.48 89.3045 13.4 89.8445 13.4ZM88.6745 25.73C91.0545 25.73 92.2445 24.36 92.2445 21.62C92.2445 18.52 91.0845 16.97 88.7645 16.97C88.3445 16.97 87.8945 17.03 87.4145 17.15C86.9345 17.25 86.5145 17.4 86.1545 17.6V24.32C86.1545 25.26 86.9945 25.73 88.6745 25.73ZM105.432 29.45C102.872 29.45 100.952 28.77 99.6721 27.41C98.3921 26.05 97.7521 24.03 97.7521 21.35C97.7521 18.55 98.3821 16.51 99.6421 15.23C100.922 13.95 102.852 13.31 105.432 13.31C108.012 13.31 109.952 13.97 111.252 15.29C112.552 16.59 113.202 18.61 113.202 21.35C113.202 23.99 112.532 26 111.192 27.38C109.852 28.76 107.932 29.45 105.432 29.45ZM105.432 25.88C106.532 25.88 107.362 25.5 107.922 24.74C108.482 23.96 108.762 22.83 108.762 21.35C108.762 19.73 108.482 18.58 107.922 17.9C107.382 17.2 106.552 16.85 105.432 16.85C104.272 16.85 103.432 17.2 102.912 17.9C102.412 18.58 102.162 19.73 102.162 21.35C102.162 22.89 102.422 24.03 102.942 24.77C103.482 25.51 104.312 25.88 105.432 25.88ZM121.927 29.45C119.367 29.45 117.447 28.77 116.167 27.41C114.887 26.05 114.247 24.03 114.247 21.35C114.247 18.55 114.877 16.51 116.137 15.23C117.417 13.95 119.347 13.31 121.927 13.31C124.507 13.31 126.447 13.97 127.747 15.29C129.047 16.59 129.697 18.61 129.697 21.35C129.697 23.99 129.027 26 127.687 27.38C126.347 28.76 124.427 29.45 121.927 29.45ZM121.927 25.88C123.027 25.88 123.857 25.5 124.417 24.74C124.977 23.96 125.257 22.83 125.257 21.35C125.257 19.73 124.977 18.58 124.417 17.9C123.877 17.2 123.047 16.85 121.927 16.85C120.767 16.85 119.927 17.2 119.407 17.9C118.907 18.58 118.657 19.73 118.657 21.35C118.657 22.89 118.917 24.03 119.437 24.77C119.977 25.51 120.807 25.88 121.927 25.88Z" fill="black"/>
<path d="M23.693 26.3242C22.9995 25.6058 22.4173 24.776 22.0706 23.8347C21.7362 22.9182 21.5504 21.9274 21.5504 20.887C21.5504 16.1559 17.7109 12.3164 12.9797 12.3164C8.24854 12.3164 4.40909 16.1559 4.40909 20.887C4.40909 21.9893 4.19854 23.0545 3.8146 24.0205C3.46781 24.8875 2.92286 25.643 2.27882 26.3118C2.01873 26.5719 1.79579 26.8815 1.6224 27.2159C1.30038 27.8228 1.12698 28.5412 1.16414 29.2843C1.27561 31.2412 2.84854 32.8513 4.80542 32.9875C5.63524 33.0494 6.41552 32.8513 7.07194 32.4673C7.65405 32.8017 8.32286 32.9999 9.0412 32.9999C9.75955 32.9999 10.4284 32.8141 11.0105 32.4673C11.5926 32.8017 12.2614 32.9999 12.9797 32.9999C13.6981 32.9999 14.3669 32.8141 14.949 32.4673C15.5311 32.8017 16.1999 32.9999 16.9183 32.9999C17.6366 32.9999 18.3054 32.8141 18.8875 32.4673C19.5563 32.8513 20.349 33.0494 21.1912 32.9751C23.1481 32.8141 24.6962 31.204 24.7953 29.2471C24.8325 28.504 24.6591 27.798 24.3371 27.2036C24.1761 26.8939 23.9531 26.5843 23.693 26.3242ZM9.89579 21.0233C8.64487 21.0233 7.62928 20.0077 7.62928 18.7568C7.62928 17.5059 8.64487 16.4903 9.89579 16.4903C11.1467 16.4903 12.1623 17.5059 12.1623 18.7568C12.1623 20.0077 11.1467 21.0233 9.89579 21.0233ZM16.1008 21.0233C14.8499 21.0233 13.8343 20.0077 13.8343 18.7568C13.8343 17.5059 14.8499 16.4903 16.1008 16.4903C17.3518 16.4903 18.3673 17.5059 18.3673 18.7568C18.3673 20.0077 17.3518 21.0233 16.1008 21.0233Z" fill="#2D66F6"/>
<path d="M4.40917 13.1216V17.2706C5.8211 13.9266 9.14036 11.5734 12.9922 11.5734C16.844 11.5734 20.1509 13.9142 21.5752 17.2583V13.1339L23.4826 12.5147V18.695C23.1977 18.8188 22.9995 19.1037 22.9995 19.4257C22.9995 19.661 23.0986 19.8716 23.2596 20.0078L22.9995 21.0605H23.7922H23.817H24.6096L24.3495 19.9954C24.4982 19.8468 24.5972 19.6486 24.5972 19.4257C24.5972 19.1037 24.3991 18.8312 24.1266 18.695V12.3041L26.0092 11.6972L13.0046 6L0 11.6972L4.40917 13.1216Z" fill="#2D66F6"/>
</svg>
