<svg width="17" height="13" viewBox="0 0 17 13" fill="none" xmlns="http://www.w3.org/2000/svg">
<path d="M16.6779 4.33516C16.8074 4.23223 17 4.32852 17 4.49121V11.2812C17 12.1611 16.2861 12.875 15.4062 12.875H1.59375C0.713867 12.875 0 12.1611 0 11.2812V4.49453C0 4.32852 0.189258 4.23555 0.32207 4.33848C1.06582 4.91621 2.05195 5.65 5.43867 8.11035C6.13926 8.62168 7.32129 9.69746 8.5 9.69082C9.68535 9.70078 10.8906 8.60176 11.5646 8.11035C14.9514 5.65 15.9342 4.91289 16.6779 4.33516ZM8.5 8.625C9.27031 8.63828 10.3793 7.65547 10.9371 7.25039C15.3432 4.05293 15.6785 3.77402 16.6945 2.97715C16.8871 2.82773 17 2.59531 17 2.34961V1.71875C17 0.838867 16.2861 0.125 15.4062 0.125H1.59375C0.713867 0.125 0 0.838867 0 1.71875V2.34961C0 2.59531 0.112891 2.82441 0.305469 2.97715C1.32148 3.7707 1.65684 4.05293 6.06289 7.25039C6.6207 7.65547 7.72969 8.63828 8.5 8.625Z" fill="white"/>
</svg>
