<svg width="16" height="16" viewBox="0 0 16 16" fill="none" xmlns="http://www.w3.org/2000/svg">
<path d="M15.4176 0.767623L12.1676 0.0176231C11.8145 -0.0636269 11.452 0.120748 11.3082 0.451998L9.80824 3.952C9.67699 4.25825 9.76449 4.61762 10.0239 4.827L11.9176 6.377C10.7926 8.77387 8.82699 10.7676 6.38011 11.9145L4.83011 10.0207C4.61761 9.76137 4.26136 9.67387 3.95511 9.80512L0.455111 11.3051C0.120736 11.452 -0.0636394 11.8145 0.0176107 12.1676L0.767611 15.4176C0.845736 15.7551 1.14574 15.9989 1.49886 15.9989C9.50199 15.9989 15.9989 9.5145 15.9989 1.49887C15.9989 1.14887 15.7582 0.845748 15.4176 0.767623Z" fill="white"/>
</svg>
